<svg id="Layer_1" data-name="Layer 1" xmlns="http://www.w3.org/2000/svg" viewBox="0 0 1024 1024"><defs><style>.cls-1,.cls-3{fill:#ffed00;}.cls-2{fill:#010101;}.cls-3{stroke:#1d1d1b;stroke-miterlimit:10;}</style></defs><title>Artboard 1</title><rect class="cls-1" width="1024" height="1024"/><g id="RVvYqv.tif"><path class="cls-2" d="M745.26,258.72c26.86-41,77.89-44.73,112.12-15.85,14.06,11.87,22.7,26.28,26.26,42.73a65.34,65.34,0,0,1-5,42.76c-2.53,5.11-1.58,8.7,4.3,10.8,19.55,7,33.64,20.1,42.07,39,13.39,30,6.18,56.85-13.94,81-5.67,6.79-6.33,7.23,3.22,10.68,24.12,8.71,39.59,26.92,46.5,51.9,8.17,29.51-3.93,53.59-20.82,76.23-10.25,13.74-19.09,28.64-29.39,42-11.19,14.57-21.71,29.56-32.36,44.49q-39.83,55.83-79.69,111.6c-17.61,24.73-33.41,51-53,74a231.46,231.46,0,0,1-71.93,56.5c-42.27,21.3-85.76,35.13-134.39,30.14-29.49-3-56.39-11.45-82.94-24-30-14.13-56.9-31.79-82.51-53A232.33,232.33,0,0,1,308,792.27a263.15,263.15,0,0,1-21.44-120.38c2-35.18,6.62-69.82,15.36-104.35,8.43-33.26,21.44-64.79,30.63-97.61,5.5-19.65,7.9-40.19,13.74-59.72,11.75-39.3,48.07-62.26,86.64-59.78,36,2.3,59.85,20.42,73.31,53.26,1,2.4,1.73,5.16,4.5,5.73,3,.62,4.14-1.88,5.73-4.05,14.09-19.3,28.9-38.24,41.9-58.12,11.67-17.85,24.47-35,36.57-52.47,13.18-19,24.54-40.13,43.56-54.78,24.68-19,63.71-20.84,88.61.64C733.24,246,741,249.46,745.26,258.72Z"/><path class="cls-3" d="M563.43,908.83c-33.5.54-62.45-8.6-90.53-21.77-25.29-11.86-49.48-26.45-69.47-45.15C380,820,360.35,794.53,349.86,762.4c-14.3-43.85-15.94-87.47-9.7-132.79,5.47-39.74,16.42-77.62,30-115,10.22-28.07,15.59-57.31,22.29-86.24,4.72-20.39,24.27-33.69,43.19-28.92C452.85,403.82,467,424,463.3,444.91c-5.35,30.14-4.59,61.34-7.16,92-1.59,18.9-5.14,37.53-2.63,56.74C455.12,606,464,610.3,473.05,612.73c10.14,2.72,22.86-6.7,25.3-15.93,7-26.41,6.43-53.78,8.34-80.63,1.15-16.18,10.54-25.81,17.53-37.57A344.28,344.28,0,0,1,553,437.94c13.58-16.7,24.91-34.93,37.82-52,12-15.84,23.4-32.41,34.5-49.07,12.69-19,26.79-37.19,41-55.14,9.26-11.67,24.78-8.21,33.83-.91,11,8.87,13.51,18.7,6.56,30.85-11.89,20.77-27.68,38.86-41,58.57-11.21,16.56-22.86,32.79-34.4,49.1-14.39,20.33-29.42,40.22-43.84,60.54-5.6,7.89-12.73,14.86-13.64,25.65-1.3,15.21,3.19,23,17.63,27.44,8.36,2.59,23.36-4.45,28.46-12.5,12.19-19.29,26.79-36.92,39.63-55.68,12-17.51,24.84-34.47,35.93-52.71,7.35-12.09,16.76-23.31,25.27-34.9,13.17-17.94,25.87-36.19,38.86-54.25C770,308.44,780.32,293.79,792,280.38c9-10.28,26.84-8.84,36.87,1.19,9.61,9.61,8.09,19.44.28,32.74-10.87,18.49-24.69,34.75-36.42,52.56-17.09,25.95-35.92,50.77-54,76-22.52,31.36-44.84,62.86-67.77,93.91-7.27,9.84-15.33,19.1-20.4,30.3-4.6,10.17-1,26.6,6.21,30.54,11.44,6.3,27.3,4.58,34.59-5.19,17-22.81,33.12-46.32,50-69.23,13.5-18.29,27.1-36.64,39.7-55.4,15.19-22.6,34.29-42.56,46-67.51,4.54-9.65,21.83-20,29.6-18.56,13.82,2.65,23.33,12.72,25.4,24.86,1.06,6.24-1.5,10.45-4.52,14.71-25.41,35.87-51.32,71.39-76.35,107.52-19.94,28.79-41.53,56.38-60.78,85.7-7.2,11-16.28,20.78-22,32.91-3.77,8-.27,23.4,6.63,28,8.26,5.55,23.63,4.44,30.29-2.07,17.34-17,29.11-38.18,43.91-57,19.07-24.33,36.8-49.56,54.83-74.62,5.09-7.07,9.33-15.46,17.24-20.94,12-8.32,27.22-7.85,37,2.57,6.54,7,7.38,27.56-.11,34.74-12,11.47-18.79,26.5-29.24,39.08-15.47,18.63-28.28,39.47-42.19,59.39-12.75,18.26-24.81,37-38.38,54.67-13.25,17.19-25.05,35.43-37.72,53-8.74,12.1-16.83,25.2-25.26,37.68C698.78,856.3,651.14,895.51,583.94,906,576.4,907.19,569,909,563.43,908.83Z"/></g></svg>