<svg xmlns="http://www.w3.org/2000/svg" viewBox="0 0 377.9 377.9"><defs><style>.cls-1,.cls-3{fill:#ffed00;}.cls-2{fill:#010101;}.cls-3{stroke:#1d1d1b;stroke-miterlimit:10;}</style></defs><title>Asset 1</title><g id="Layer_2" data-name="Layer 2"><g id="Layer_1-2" data-name="Layer 1"><path class="cls-1" d="M78.3,0H299.66A78.24,78.24,0,0,1,377.9,78.24V299.66a78.24,78.24,0,0,1-78.24,78.24H78.24A78.24,78.24,0,0,1,0,299.66V78.3A78.3,78.3,0,0,1,78.3,0Z"/><g id="RVvYqv.tif"><path class="cls-2" d="M282,95.8c10.09-15.39,29.26-16.81,42.13-6A28.48,28.48,0,0,1,334,105.9,24.51,24.51,0,0,1,332.13,122c-.95,1.92-.59,3.27,1.62,4a26.49,26.49,0,0,1,15.81,14.66c5,11.27,2.32,21.36-5.24,30.42-2.13,2.55-2.38,2.72,1.21,4,9.06,3.27,14.87,10.11,17.47,19.5,3.07,11.09-1.48,20.13-7.82,28.64-3.85,5.17-7.18,10.76-11,15.8-4.21,5.48-8.16,11.11-12.17,16.72q-15,21-29.94,41.93c-6.61,9.3-12.55,19.16-19.93,27.79a86.7,86.7,0,0,1-27,21.23c-15.88,8-32.23,13.21-50.5,11.33a94.77,94.77,0,0,1-31.16-9,145.37,145.37,0,0,1-31-19.92,87.32,87.32,0,0,1-24.7-32.85,98.92,98.92,0,0,1-8.06-45.23,205.87,205.87,0,0,1,5.78-39.21c3.17-12.5,8-24.34,11.51-36.68,2.06-7.38,3-15.1,5.16-22.44a31.47,31.47,0,0,1,32.55-22.46c13.52.87,22.49,7.67,27.55,20,.37.9.65,1.94,1.69,2.16s1.56-.71,2.15-1.53c5.3-7.25,10.86-14.37,15.75-21.83,4.38-6.71,9.19-13.17,13.74-19.72,4.95-7.13,9.22-15.08,16.37-20.58,9.27-7.14,23.94-7.83,33.29.24C277.51,91,280.43,92.32,282,95.8Z"/><path class="cls-3" d="M213.7,340.08c-12.58.2-23.46-3.23-34-8.18-9.51-4.46-18.59-9.94-26.11-17-8.79-8.22-16.18-17.8-20.12-29.87-5.38-16.48-6-32.87-3.65-49.9C131.87,220.23,136,206,141.09,192c3.85-10.54,5.86-21.53,8.38-32.4,1.77-7.66,9.12-12.66,16.23-10.87,6.46,1.63,11.78,9.2,10.38,17.07-2,11.33-1.72,23.05-2.69,34.58-.6,7.1-1.93,14.1-1,21.32.61,4.64,3.94,6.25,7.35,7.16,3.8,1,8.58-2.52,9.5-6,2.63-9.92,2.42-20.2,3.13-30.29.44-6.08,4-9.7,6.59-14.12a129.27,129.27,0,0,1,10.8-15.28c5.1-6.27,9.36-13.12,14.21-19.54,4.5-5.95,8.79-12.18,13-18.44,4.77-7.15,10.07-14,15.41-20.71,3.48-4.39,9.31-3.09,12.71-.35,4.13,3.34,5.08,7,2.47,11.6-4.47,7.8-10.4,14.6-15.42,22-4.21,6.23-8.58,12.32-12.92,18.45-5.41,7.64-11.06,15.12-16.48,22.75-2.1,3-4.78,5.59-5.12,9.64-.49,5.71,1.2,8.63,6.62,10.31,3.15,1,8.78-1.67,10.7-4.7,4.58-7.24,10.07-13.87,14.89-20.92,4.5-6.58,9.33-12.95,13.5-19.81,2.76-4.54,6.3-8.75,9.5-13.11,4.95-6.74,9.72-13.6,14.6-20.38,3.91-5.45,7.8-11,12.2-16,3.38-3.86,10.09-3.32,13.86.45,3.61,3.61,3,7.3.1,12.3-4.08,7-9.27,13.06-13.68,19.75-6.42,9.75-13.5,19.07-20.31,28.57-8.46,11.78-16.85,23.61-25.47,35.28-2.72,3.7-5.75,7.18-7.66,11.39-1.73,3.82-.36,10,2.33,11.47,4.3,2.37,10.26,1.73,13-2,6.4-8.57,12.44-17.4,18.8-26,5.07-6.87,10.18-13.77,14.91-20.82,5.71-8.49,12.89-16,17.3-25.36,1.7-3.63,8.2-7.53,11.12-7a11.59,11.59,0,0,1,9.54,9.34c.4,2.35-.56,3.93-1.69,5.53-9.55,13.48-19.29,26.83-28.69,40.4-7.5,10.82-15.61,21.18-22.84,32.2-2.71,4.13-6.12,7.81-8.25,12.37-1.41,3-.1,8.79,2.49,10.53,3.11,2.09,8.88,1.67,11.38-.77,6.52-6.37,10.94-14.35,16.5-21.44,7.17-9.14,13.83-18.62,20.61-28,1.91-2.66,3.5-5.8,6.47-7.86,4.52-3.13,10.23-2.95,13.89,1,2.46,2.63,2.78,10.35,0,13.05-4.5,4.31-7.06,10-11,14.69-5.81,7-10.62,14.83-15.85,22.31-4.79,6.86-9.32,13.92-14.42,20.54s-9.41,13.32-14.17,19.91c-3.29,4.55-6.33,9.47-9.49,14.16-13.79,20.43-31.69,35.16-56.94,39.11C218.58,339.46,215.8,340.14,213.7,340.08Z"/></g></g></g></svg>