<svg xmlns="http://www.w3.org/2000/svg" viewBox="0 0 255.41 276.41"><title>Asset 4</title><g id="Layer_2" data-name="Layer 2"><g id="Layer_1-2" data-name="Layer 1"><path d="M85,70.07c3.06-4,5.85-7.47,8.38-11.09,9.72-13.91,19.35-27.89,29-41.83,5.13-7.4,11.09-13.78,20.34-15.88,11.37-2.59,19.28.2,30.6,11.13a26.68,26.68,0,0,1,2.27-3.19c9.66-10.14,23.58-12.07,35.49-5,12.47,7.42,17.65,20.8,12.94,34.22-1,2.79-.71,4.09,2,5.44,18.51,9.2,22.73,27.78,10.19,44.38-.6.79-1.14,1.62-1.94,2.76,1.08.6,2,1.21,3,1.64,16.89,7.45,23.26,25.62,13.65,41.51-6.7,11.07-14.69,21.37-22.21,31.95-17.82,25.1-34.79,50.89-53.82,75.05C155.18,266.21,128,278,96,276.24,74.68,275,56.35,264.9,39.38,252.37,8,229.17-2.79,197.59.6,159.59c2.08-23.3,10.06-44.89,16.57-67,2-6.66,3.07-13.57,4.82-20.31C25.71,57.92,36.42,48.37,50.91,47.5c13.66-.83,25.42,4.36,32.07,19C83.43,67.46,84,68.38,85,70.07ZM19.75,170.23c.51,5.63.82,11.28,1.58,16.87,5,36.72,42,69.71,79.39,69.94,25.49.16,46-11.21,61.34-31.17,11.95-15.57,22.76-32,34.14-48q18.66-26.22,37.46-52.35c2.42-3.38,2.36-9.24-.19-12.14a9.08,9.08,0,0,0-11.85-1.25,24.45,24.45,0,0,0-5.49,5.67c-6.35,8.56-12.46,17.29-18.8,25.85s-12.52,16.83-19.05,25c-2.9,3.64-9.79,4.37-13.26,2-3.3-2.24-4.32-8.36-2.09-12.76a27.51,27.51,0,0,1,1.81-3c4.66-6.69,9.31-13.39,14-20q21.27-29.91,42.6-59.78c3.4-4.78,2.5-9.39-2.28-12.78S208,60.93,204.38,66.89c-2.06,3.41-3.88,7-6.2,10.23q-19.94,27.8-40.08,55.44c-1.66,2.3-3.22,4.68-5.06,6.81a11.2,11.2,0,0,1-13.23,2.28c-3.47-2-5.15-7.41-3.18-12a46.22,46.22,0,0,1,5.12-8.51Q170.81,80.54,199.94,40a65.22,65.22,0,0,0,5.14-8.53c2-4,1-7.45-2.72-10s-7.51-2.85-11,.35a36.8,36.8,0,0,0-4.85,5.7Q167,55,147.43,82.44c-7,9.9-14,19.85-21.1,29.71-3.41,4.73-9.14,6.42-13.56,4.27s-6.09-6.31-4.61-11.94a18.36,18.36,0,0,1,3-5.7C115,93.34,119,88.07,122.89,82.64c11.46-16.15,23-32.27,34.24-48.55,3.42-5,2.4-8.86-2.17-12.06s-8.8-2.81-12.16,1.82c-17.6,24.23-35,48.65-52.61,72.84-5.19,7.1-6.92,14.77-7,23.38a115,115,0,0,1-2.37,19.77,9.26,9.26,0,0,1-9.3,7.54c-4.74-.28-8.17-3.38-8.83-8.52a46.42,46.42,0,0,1-.18-9.43c1.24-16.09,2.72-32.16,3.89-48.25.49-6.78-5-13.35-11.41-14.41-5.73-.94-11.59,3.28-13.78,9.94-.31,1-.55,1.92-.81,2.88-3.51,12.63-6.7,25.35-10.59,37.87C24.49,134.68,20,152,19.75,170.23Z"/></g></g></svg>