<svg xmlns="http://www.w3.org/2000/svg" viewBox="0 0 688.66 745.28"><title>HelloMateIconBlack</title><g id="Layer_2" data-name="Layer 2"><g id="Layer_1-2" data-name="Layer 1"><path d="M229.17,188.92C237.43,178,245,168.79,251.78,159,278,121.52,304,83.83,330.05,46.24,343.89,26.3,359.94,9.1,384.89,3.42c30.67-7,52,.55,82.5,30,2-2.87,3.72-6.08,6.13-8.62,26-27.32,63.58-32.53,95.7-13.42,33.61,20,47.57,56.1,34.86,92.26-2.64,7.53-1.91,11,5.4,14.67C659.41,143.15,670.77,193.23,637,238c-1.61,2.14-3.07,4.39-5.21,7.44,2.9,1.63,5.34,3.26,8,4.43,45.54,20.1,62.72,69.07,36.82,111.92-18.07,29.86-39.63,57.63-59.88,86.15-48.06,67.69-93.81,137.21-145.11,202.34C418.39,717.78,345.05,749.65,259,744.8c-57.6-3.24-107-30.58-152.77-64.36C21.49,617.89-7.54,532.74,1.62,430.29c5.61-62.82,27.12-121,44.68-180.57,5.3-18,8.28-36.59,13-54.75,10-38.8,38.92-64.55,78-66.91,36.86-2.22,68.55,11.76,86.47,51.16C224.94,181.9,226.59,184.37,229.17,188.92ZM53.25,459c1.39,15.17,2.2,30.41,4.25,45.49,13.44,99,113.14,187.93,214.07,188.57,68.72.43,124.07-30.24,165.39-84.06,32.22-42,61.35-86.29,92.05-129.42q50.32-70.71,101-141.16c6.53-9.11,6.36-24.92-.51-32.73-7.54-8.56-21.43-10.61-32-3.38-5.75,4-10.61,9.63-14.81,15.3-17.1,23.08-33.59,46.61-50.69,69.69-16.82,22.71-33.73,45.38-51.35,67.48-7.83,9.82-26.4,11.79-35.75,5.45-8.9-6-11.66-22.53-5.64-34.39a68.58,68.58,0,0,1,4.88-8c12.58-18,25.1-36.12,37.85-54q57.38-80.62,114.87-161.17c9.16-12.89,6.73-25.32-6.14-34.46s-30-3.84-39.71,12.22c-5.55,9.21-10.45,18.89-16.7,27.6q-53.76,74.94-108.06,149.49c-4.48,6.18-8.7,12.59-13.66,18.35-8.38,9.72-24.83,12.29-35.67,6.14-9.36-5.32-13.89-20-8.58-32.31,3.5-8.13,8.61-15.71,13.8-23q78.35-109.47,156.91-218.79a176.49,176.49,0,0,0,13.85-23c5.48-10.8,2.82-20.1-7.32-26.85s-20.26-7.71-29.59.92A101.17,101.17,0,0,0,503,74.3q-52.85,73.9-105.46,148c-19,26.68-37.77,53.52-56.9,80.09-9.2,12.77-24.64,17.33-36.55,11.53-11.63-5.67-16.42-17-12.44-32.2,1.43-5.46,4.67-10.68,8-15.37,10.36-14.66,21.34-28.88,31.73-43.51,30.92-43.54,61.95-87,92.33-130.92,9.21-13.32,6.47-23.88-5.85-32.5s-23.73-7.59-32.8,4.9c-47.45,65.34-94.22,131.17-141.84,196.39-14,19.15-18.65,39.83-18.82,63.06-.13,17.79-3.15,35.7-6.39,53.29-2.32,12.63-14.11,21-25.06,20.33-12.78-.76-22-9.11-23.82-23a125.52,125.52,0,0,1-.49-25.42c3.34-43.38,7.34-86.71,10.49-130.1,1.33-18.27-13.43-36-30.77-38.85-15.43-2.53-31.23,8.85-37.15,26.81-.84,2.55-1.46,5.17-2.18,7.75C99.53,248.65,90.91,283,80.44,316.69,66,363.13,54,409.83,53.25,459Z"/></g></g></svg>